# xmcd
#
# Track frame offsets:
#	150
#	1432
#	15285
#	20223
#	30103
#	70400
#	80088
#	95748
#	101226
#	125365
#	181549
#	221133
#	260410
#	296865
#
# Disc length: 3970 seconds
# Revision: 0
# Processed by: cddbd v1.5.2PL0 Copyright (c) Steve Scherf et al.
# Submitted via: dBpowerAMP V12.0
#
DISCID=c10f800e
DTITLE=Hale Dwoskin - The Inner Circle Retreat 03 CD 08
DYEAR=2007
DGENRE=Speech
TTITLE0=Intro Music
TTITLE1=Partnership Release Demonstration on Positive and Negative
TTITLE2=Instructions
TTITLE3=Questions on How to Do the Release
TTITLE4=How Our Life Story Develops
TTITLE5=Your Life Is Just a Memory
TTITLE6=About the Scientific Approach
TTITLE7=What Is Wanting to Be Separate
TTITLE8=About Appearances in Awareness
TTITLE9=How to Give without Strings - Wanting Permission to Be
TTITLE10=Does Beingness Have Any Information - How to Tell Intuition from Reaction
TTITLE11=I Hurt Therefore I Am
TTITLE12=How to Release the Whole Vortex
TTITLE13=Concluding Music
EXTD=
EXTT0=
EXTT1=
EXTT2=
EXTT3=
EXTT4=
EXTT5=
EXTT6=
EXTT7=
EXTT8=
EXTT9=
EXTT10=
EXTT11=
EXTT12=
EXTT13=
PLAYORDER=
